#!OML:ASF E:\Style4\Style4.ASF
:FULLY-SPECIFIED
:DEGREES
3230
root -0.0607835 17.1605 -0.826138 -1.76622 0.636239 2.5887
lowerback 13.6739 4.69158 -4.13124
upperback 10.6701 5.80094 -0.755629
thorax 3.34763 2.72157 0.891621
lowerneck 6.51846 -12.6567 -8.56705
upperneck -1.43451 -17.3115 15.5534
head 0.65892 -8.92345 5.94033
rclavicle 2.84759e-014 -1.87852e-014
rhumerus -8.0221 15.8501 -83.1546
rradius 112.916
rwrist 18.5615
rhand 41.281 -6.82429
rfingers 7.12502
rthumb 63.4482 -16.39
lclavicle 2.84759e-014 -1.87852e-014
lhumerus -17.4332 -29.1027 87.4823
lradius 128.015
lwrist -13.0304
lhand 25.0935 41.1855
lfingers 7.12502
lthumb 49.247 62.7949
rfemur -19.7237 -4.79386 16.2116
rtibia 47.641
rfoot -23.4435 -16.1593
rtoes -13.2289
lfemur -18.5432 1.39111 -20.4329
ltibia 44.6855
lfoot -23.3514 8.37304
ltoes -17.1534
3231
root -0.0524112 17.171 -0.820384 -1.6717 0.478833 2.64127
lowerback 13.5998 4.59777 -4.10054
upperback 10.6449 5.68315 -0.768879
thorax 3.36802 2.66375 0.87936
lowerneck 6.45383 -12.6248 -8.5144
upperneck -1.37121 -17.2672 15.5085
head 0.673692 -8.89663 5.91508
rclavicle -6.09275e-014 3.4191e-014
rhumerus -8.49775 16.1958 -83.3086
rradius 113.072
rwrist 18.3808
rhand 41.0724 -6.79899
rfingers 7.12502
rthumb 63.278 -16.6051
lclavicle -6.09275e-014 3.4191e-014
lhumerus -17.7035 -28.8718 87.3846
lradius 127.988
lwrist -13.0349
lhand 25.0187 41.2768
lfingers 7.12502
lthumb 49.1784 62.9205
rfemur -19.7389 -4.77131 16.1315
rtibia 47.4696
rfoot -23.3584 -16.027
rtoes -13.3846
lfemur -18.461 1.28809 -20.5171
ltibia 44.4564
lfoot -23.5814 8.27836
ltoes -15.5674
3232
root -0.0434028 17.1788 -0.813633 -1.56934 0.285125 2.71949
lowerback 13.5158 4.51552 -4.13241
upperback 10.5915 5.57381 -0.783973
thorax 3.3578 2.60741 0.897674
lowerneck 6.55536 -12.5978 -8.45342
upperneck -1.45964 -17.2211 15.4693
head 0.617021 -8.87931 5.90933
rclavicle 1.38652e-014 -1.56046e-014
rhumerus -8.94654 16.6397 -83.4678
rradius 113.214
rwrist 18.2646
rhand 40.6145 -6.7038
rfingers 7.12502
rthumb 62.9026 -17.0266
lclavicle 1.38652e-014 -1.56046e-014
lhumerus -17.9987 -28.6763 87.2613
lradius 127.956
lwrist -13.0348
lhand 24.8317 41.3714
lfingers 7.12502
lthumb 49.0066 63.1006
rfemur -19.7739 -4.72562 16.0277
rtibia 47.3248
rfoot -23.2716 -15.9435
rtoes -13.3747
lfemur -18.3979 1.276 -20.6369
ltibia 44.2461
lfoot -23.6309 8.36868
ltoes -15.3386
3233
root -0.0355115 17.1865 -0.809467 -1.43694 0.0739531 2.71691
lowerback 13.46 4.44451 -4.04541
upperback 10.507 5.48773 -0.799516
thorax 3.30744 2.57036 0.843941
lowerneck 6.52641 -12.5728 -8.35427
upperneck -1.43928 -17.1793 15.3573
head 0.603845 -8.85511 5.86271
rclavicle -2.22142e-014 6.75868e-015
rhumerus -9.35727 17.0325 -83.5838
rradius 113.358
rwrist 18.1362
rhand 40.0832 -6.60636
rfingers 7.12502
rthumb 62.4641 -17.5101
lclavicle -2.22142e-014 6.75868e-015
lhumerus -18.2849 -28.5059 87.1204
lradius 127.949
lwrist -13.0687
lhand 24.6811 41.2865
lfingers 7.12502
lthumb 48.8682 63.0838
rfemur -19.8627 -4.66823 16.0255
rtibia 47.1756
rfoot -23.1273 -15.9057
rtoes -13.6157
lfemur -18.3998 1.36429 -20.6572
ltibia 44.0543
lfoot -23.5765 8.44108
ltoes -15.2585
3234
root -0.0274657 17.197 -0.805141 -1.33269 -0.140797 2.6923
lowerback 13.4109 4.37693 -3.96329
upperback 10.4382 5.40533 -0.779212
thorax 3.26634 2.53326 0.829815
lowerneck 6.43203 -12.522 -8.37558
upperneck -1.2978 -17.1218 15.286
head 0.64879 -8.81761 5.83519
rclavicle -1.03368e-014 1.36167e-014
rhumerus -9.66783 17.448 -83.6402
rradius 113.48
rwrist 17.9524
rhand 39.6679 -6.65987
rfingers 7.12502
rthumb 62.1193 -18.0044
lclavicle -1.03368e-014 1.36167e-014
lhumerus -18.4938 -28.2474 87.0026
lradius 127.995
lwrist -13.1217
lhand 24.5645 41.1696
lfingers 7.12502
lthumb 48.7611 63.0193
rfemur -19.9019 -4.5719 16.0341
rtibia 46.9829
rfoot -23.0343 -15.832
rtoes -13.904
lfemur -18.3715 1.48579 -20.6466
ltibia 43.8724
lfoot -23.5175 8.42805
ltoes -14.9493
3235
root -0.0195104 17.2108 -0.797925 -1.27472 -0.345489 2.66848
lowerback 13.3828 4.30736 -3.87914
upperback 10.3795 5.31973 -0.756075
thorax 3.22509 2.49451 0.8167
lowerneck 6.44493 -12.4631 -8.43763
upperneck -1.26256 -17.0513 15.2699
head 0.652317 -8.78131 5.84232
rclavicle -2.72335e-014 7.95139e-016
rhumerus -9.88279 17.8459 -83.6726
rradius 113.581
rwrist 17.7661
rhand 39.3231 -6.6186
rfingers 7.12502
rthumb 61.8318 -18.3204
lclavicle -2.72335e-014 7.95139e-016
lhumerus -18.7188 -28.0091 86.9522
lradius 128.025
lwrist -13.1852
lhand 24.4777 41.075
lfingers 7.12502
lthumb 48.6812 62.9637
rfemur -19.8597 -4.49943 16.034
rtibia 46.7554
rfoot -22.9551 -15.7867
rtoes -14.3316
lfemur -18.2882 1.60808 -20.644
ltibia 43.7045
lfoot -23.5219 8.55497
ltoes -15.1309
3236
root -0.0115178 17.2235 -0.793444 -1.27099 -0.525043 2.61302
lowerback 13.4313 4.19456 -3.76564
upperback 10.3465 5.17661 -0.734402
thorax 3.17544 2.42844 0.787955
lowerneck 6.43249 -12.3764 -8.504
upperneck -1.32805 -16.9336 15.2545
head 0.625211 -8.72338 5.8546
rclavicle 3.05134e-014 -3.11098e-014
rhumerus -9.97889 18.2623 -83.7365
rradius 113.677
rwrist 17.6411
rhand 39.0667 -6.47944
rfingers 7.12502
rthumb 61.6171 -18.442
lclavicle 3.05134e-014 -3.11098e-014
lhumerus -18.8923 -27.6445 86.8488
lradius 127.983
lwrist -13.3621
lhand 24.6132 40.7566
lfingers 7.12502
lthumb 48.8058 62.5845
rfemur -19.7705 -4.42519 16.0734
rtibia 46.536
rfoot -22.8538 -15.7699
rtoes -14.7044
lfemur -18.1751 1.7432 -20.6148
ltibia 43.5522
lfoot -23.4535 8.81782
ltoes -16.0673
3237
root -0.00392827 17.2333 -0.793806 -1.21624 -0.761118 2.55429
lowerback 13.4917 4.12099 -3.60844
upperback 10.2868 5.08822 -0.750223
thorax 3.0952 2.39403 0.688123
lowerneck 6.42424 -12.3088 -8.50184
upperneck -1.41871 -16.834 15.2474
head 0.587174 -8.67573 5.8602
rclavicle -3.2054e-014 2.28602e-014
rhumerus -10.0527 18.5697 -83.8343
rradius 113.781
rwrist 17.6097
rhand 38.7295 -6.37641
rfingers 7.12502
rthumb 61.3339 -18.6757
lclavicle -3.2054e-014 2.28602e-014
lhumerus -18.9912 -27.3962 86.6803
lradius 127.957
lwrist -13.3949
lhand 24.6027 40.4777
lfingers 7.12502
lthumb 48.7961 62.3103
rfemur -19.7894 -4.29849 16.1278
rtibia 46.3636
rfoot -22.7433 -15.6628
rtoes -14.5495
lfemur -18.145 1.88369 -20.5751
ltibia 43.4233
lfoot -23.3555 8.96752
ltoes -16.3848
3238
root 0.0023519 17.2388 -0.796335 -1.11991 -1.02174 2.5781
lowerback 13.5013 4.08797 -3.57328
upperback 10.2163 5.04387 -0.77559
thorax 3.02034 2.37535 0.643736
lowerneck 6.45506 -12.2543 -8.40806
upperneck -1.50433 -16.7456 15.1539
head 0.530382 -8.6337 5.83035
rclavicle 5.8393e-014 -2.14687e-014
rhumerus -10.0828 18.8268 -83.898
rradius 113.887
rwrist 17.5958
rhand 38.3098 -6.35275
rfingers 7.12502
rthumb 60.9799 -19.0615
lclavicle 5.8393e-014 -2.14687e-014
lhumerus -19.1029 -27.2565 86.5594
lradius 127.972
lwrist -13.2462
lhand 24.4056 40.6582
lfingers 7.12502
lthumb 48.6149 62.5789
rfemur -19.9111 -4.14887 16.0982
rtibia 46.2603
rfoot -22.6268 -15.5837
rtoes -14.4124
lfemur -18.1661 2.00556 -20.609
ltibia 43.3029
lfoot -23.333 8.91994
ltoes -15.7257
